<?xml version="1.0" encoding="UTF-8"?>
<svg id="Capa_1" data-name="Capa 1" xmlns="http://www.w3.org/2000/svg" xmlns:xlink="http://www.w3.org/1999/xlink" viewBox="0 0 512 640">
  <defs>
    <style>
      .cls-1 {
        fill: #8c9aa9;
      }

      .cls-2 {
        fill: #171e2b;
      }

      .cls-3 {
        fill: #ec6b6b;
      }

      .cls-4 {
        fill: url(#Degradado_sin_nombre_8);
      }

      .cls-5 {
        fill: none;
        stroke: currentColor;
        stroke-linecap: round;
        stroke-linejoin: round;
        stroke-width: 12px;
      }
    </style>
    <linearGradient id="Degradado_sin_nombre_8" data-name="Degradado sin nombre 8" x1="254.52" y1="136.12" x2="260.9" y2="366.04" gradientUnits="userSpaceOnUse">
      <stop offset=".08" stop-color="#8c9aa9"/>
      <stop offset=".1" stop-color="#8795a3"/>
      <stop offset=".32" stop-color="#626b73"/>
      <stop offset=".52" stop-color="#44494d"/>
      <stop offset=".71" stop-color="#2e3132"/>
      <stop offset=".87" stop-color="#212321"/>
      <stop offset="1" stop-color="#1d1e1c"/>
    </linearGradient>
  </defs>
  <circle class="cls-3" cx="94.71" cy="65" r="52.83"/>
  <circle class="cls-2" cx="417.25" cy="63.86" r="52.83"/>
  <circle class="cls-1" cx="256.44" cy="65" r="52.83"/>
  <path class="cls-4" d="M256.23,151.04c-29.95,0-55.19,20.95-61.96,48.9,32.21,35.17,50.8,78.98,50.74,113.81-.01,9.37-.08,9.89-.15,14.05,12.4-13.64,22.03-29.83,27.86-47.64.56-1.71,1.02-3.46,1.51-5.21,5.32-16.84,14.48-35.91,27.03-53.69,5.12-7.25,10.82-14.27,17.04-20.85-6.59-28.19-31.96-49.38-62.09-49.38Z"/>
  <path class="cls-3" d="M213.84,412.29c-30.11,2.13-58.24-5.83-81.34-20.83-10.38-6.74-5.01-22.4,7.36-21.65,7.19.44,14.54.29,22-.48,32.77-3.4,61.97-19.08,83.04-42.15.07-4.21.13-4.66.15-14.02.07-44.56-31.81-106.91-81.66-138.12-43.82-27.43-83.16-32.07-102.63-13.92-17.6,16.41-18.84,32.94-18.88,41.21-.16,34.28,1.5,123.82,1.5,123.82.17,96.26,79.46,175.52,177.78,175.73l22.94.05s.19-44.79.41-95.64c-9.79,3.17-20.05,5.24-30.65,6Z"/>
  <path class="cls-2" d="M452.54,161.27c-20.1-17.16-60.76-11.22-101.05,11.89-20.23,11.6-37.07,28.8-50.21,47.42-12.55,17.78-21.71,36.85-27.03,53.69-.49,1.74-.95,3.49-1.51,5.21-15.75,48.12-58.84,84.69-110.88,90.13-7.46.78-14.81.92-22,.49-12.37-.76-17.73,15.01-7.36,21.79,23.09,15.09,51.23,23.11,81.34,20.96,19.62-1.4,38.16-7.24,54.57-16.52.23,55.28.45,106.7.45,106.7l26.37-.56c96.59-.21,174.49-79.73,174.65-176.32l.19-110.72s2.3-37.23-17.52-54.16Z"/>
  <path class="cls-5" d="M252,412c4.64,59.85,24.87,121.03,48,176"/>
</svg>