<?xml version="1.0" encoding="UTF-8"?>
<svg id="Capa_1" data-name="Capa 1" xmlns="http://www.w3.org/2000/svg" xmlns:xlink="http://www.w3.org/1999/xlink" viewBox="0 0 300 300">
  <defs>
    <style>
      .cls-1 {
        fill: #8c9aa9;
      }

      .cls-2 {
        fill: #171e2b;
      }

      .cls-3 {
        fill: #ec6b6b;
      }

      .cls-4 {
        fill: url(#Degradado_sin_nombre_8);
      }
    </style>
    <linearGradient id="Degradado_sin_nombre_8" data-name="Degradado sin nombre 8" x1="149.6" y1="74.54" x2="151.33" y2="136.67" gradientUnits="userSpaceOnUse">
      <stop offset=".08" stop-color="#8c9aa9"/>
      <stop offset=".1" stop-color="#8795a3"/>
      <stop offset=".32" stop-color="#626b73"/>
      <stop offset=".52" stop-color="#44494d"/>
      <stop offset=".71" stop-color="#2e3132"/>
      <stop offset=".87" stop-color="#212321"/>
      <stop offset="1" stop-color="#1d1e1c"/>
    </linearGradient>
  </defs>
  <g>
    <circle class="cls-3" cx="106.42" cy="55.33" r="14.27"/>
    <circle class="cls-2" cx="193.57" cy="55.02" r="14.27"/>
    <circle class="cls-1" cx="150.12" cy="55.33" r="14.27"/>
    <path class="cls-4" d="M150.06,78.58c-8.09,0-14.91,5.66-16.74,13.21,8.7,9.5,13.73,21.34,13.71,30.75,0,2.53-.02,2.67-.04,3.8,3.35-3.69,5.95-8.06,7.53-12.87.15-.46.28-.94.41-1.41,1.44-4.55,3.91-9.7,7.3-14.51,1.38-1.96,2.92-3.86,4.6-5.63-1.78-7.62-8.63-13.34-16.78-13.34Z"/>
    <path class="cls-3" d="M138.61,149.16c-8.13.58-15.74-1.58-21.98-5.63-2.8-1.82-1.35-6.05,1.99-5.85,1.94.12,3.93.08,5.94-.13,8.85-.92,16.74-5.16,22.44-11.39.02-1.14.04-1.26.04-3.79.02-12.04-8.59-28.89-22.06-37.32-11.84-7.41-22.47-8.67-27.73-3.76-4.76,4.43-5.09,8.9-5.1,11.14-.04,9.26.4,33.46.4,33.46.04,26.01,21.47,47.42,48.03,47.48h6.2s.05-12.09.11-25.83c-2.65.86-5.42,1.42-8.28,1.62Z"/>
    <path class="cls-2" d="M203.1,81.34c-5.43-4.64-16.42-3.03-27.3,3.21-5.46,3.14-10.02,7.78-13.57,12.81-3.39,4.81-5.87,9.96-7.3,14.51-.13.47-.26.94-.41,1.41-4.26,13-15.9,22.88-29.96,24.35-2.02.21-4,.25-5.94.13-3.34-.2-4.79,4.06-1.99,5.89,6.24,4.08,13.84,6.24,21.98,5.66,5.3-.38,10.31-1.96,14.74-4.46.06,14.94.12,28.83.12,28.83l7.13-.15c26.1-.06,47.14-21.54,47.19-47.64l.05-29.92s.62-10.06-4.73-14.63Z"/>
  </g>
  <g>
    <path class="cls-3" d="M25.58,247.08l-12.06-44.72h6.9l8.44,32.98.28,1.03h.06l.28-1.03,9.77-32.98h6.31l9.52,32.98.31,1h.03l.28-1,9.12-32.98h6.84l-13.08,44.72h-6.18l-9.87-34.01-.31-1.12h-.06l-.31,1.09-10.06,34.04h-6.21Z"/>
    <path class="cls-3" d="M88.91,247.76c-4.79,0-8.82-1.6-12.09-4.81-3.27-3.21-4.9-7.28-4.9-12.21s1.63-8.98,4.89-12.19c3.26-3.22,7.22-4.82,11.88-4.82s8.66,1.48,11.6,4.43c2.95,2.96,4.42,6.69,4.42,11.21v2.9h-29.48v-4.5h23.26c-.1-2.44-1.05-4.46-2.83-6.07-1.78-1.61-4.1-2.42-6.95-2.42s-5.48,1.08-7.57,3.25c-2.09,2.17-3.14,4.91-3.14,8.24s1.11,6.21,3.33,8.34c2.22,2.12,4.79,3.19,7.73,3.19,1.52,0,2.85-.21,4-.64,1.14-.43,2.18-1.05,3.11-1.87.93-.82,1.88-2.02,2.86-3.61l4.97,2.44c-1.19,2.27-2.48,4.03-3.89,5.29-1.41,1.26-3,2.22-4.79,2.87-1.79.66-3.92.98-6.4.98Z"/>
    <path class="cls-3" d="M110.96,247.08v-44.72h6.43v44.72h-6.43Z"/>
    <path class="cls-3" d="M126.01,247.08v-44.72h6.43v44.72h-6.43Z"/>
    <path class="cls-3" d="M154.77,247.76c-4.39,0-8.1-1.61-11.13-4.82-3.03-3.22-4.54-7.26-4.54-12.13s1.54-9.06,4.61-12.26c3.07-3.2,6.84-4.79,11.32-4.79,2.52,0,4.86.53,7.03,1.58,2.16,1.05,3.77,2.49,4.81,4.32l-.31-.28v-17.02h6.4v44.72h-6.12v-5.78l.34-.25-.06.53c-1.04,1.92-2.68,3.42-4.9,4.53-2.23,1.1-4.71,1.66-7.43,1.66ZM156.17,242.05c3.12,0,5.68-1.08,7.67-3.23,1.99-2.15,2.98-4.83,2.98-8.04s-1.01-6.01-3.04-8.1c-2.03-2.09-4.56-3.14-7.6-3.14s-5.67,1.03-7.71,3.08c-2.04,2.05-3.06,4.77-3.06,8.17s1.03,6.15,3.08,8.2c2.05,2.05,4.62,3.08,7.7,3.08Z"/>
    <path class="cls-3" d="M196.61,247.76c-4.79,0-8.82-1.6-12.09-4.81-3.27-3.21-4.9-7.28-4.9-12.21s1.63-8.98,4.89-12.19c3.26-3.22,7.22-4.82,11.88-4.82s8.66,1.48,11.6,4.43c2.95,2.96,4.42,6.69,4.42,11.21v2.9h-29.48v-4.5h23.26c-.1-2.44-1.05-4.46-2.83-6.07-1.78-1.61-4.1-2.42-6.95-2.42s-5.48,1.08-7.57,3.25c-2.09,2.17-3.14,4.91-3.14,8.24s1.11,6.21,3.33,8.34c2.22,2.12,4.79,3.19,7.73,3.19,1.52,0,2.85-.21,4-.64,1.14-.43,2.18-1.05,3.11-1.87.93-.82,1.88-2.02,2.86-3.61l4.97,2.44c-1.19,2.27-2.48,4.03-3.89,5.29-1.41,1.26-3,2.22-4.79,2.87-1.79.66-3.92.98-6.4.98Z"/>
    <path class="cls-3" d="M218.66,247.08v-32.66h6.09v5.65l-.44-.53h.47c1.08-1.94,2.43-3.39,4.04-4.36,1.61-.97,3.27-1.45,4.98-1.45.35,0,.77.03,1.25.09.48.06,1.12.18,1.94.34v6.09c-.81-.21-1.5-.35-2.08-.42-.57-.07-1.04-.11-1.39-.11-2.27,0-4.24.86-5.92,2.58-1.68,1.72-2.51,4.05-2.51,7.01v17.77h-6.43Z"/>
    <path class="cls-3" d="M242.14,247.08v-44.72h6.43v44.72h-6.43Z"/>
    <path class="cls-3" d="M260.44,259.26s-.04,0,0,0l6.84-14.83-.06,3.03-13.9-33.04h6.75l9.27,22.83.62,1.62h.06l.59-1.62,9.18-22.83h6.68l-19.14,44.84s.02,0,0,0h-6.9Z"/>
  </g>
</svg>