<svg xmlns="http://www.w3.org/2000/svg" viewBox="0 0 720 440" fill="none" role="img" aria-labelledby="title">
  <title id="title">Wellderly product preview — assessment and care plan</title>
  <rect width="720" height="440" rx="28" fill="#FAF7F4"/>
  <rect x="20" y="20" width="440" height="400" rx="20" fill="#FFFFFF" stroke="#E2E4E8" stroke-width="1.25"/>
  <rect x="36" y="36" width="120" height="10" rx="4" fill="#EEF2F6"/>
  <rect x="36" y="56" width="200" height="8" rx="3" fill="#E2E4E8"/>
  <rect x="36" y="80" width="408" height="6" rx="2" fill="#EEF2F6"/>
  <rect x="36" y="92" width="320" height="6" rx="2" fill="#EEF2F6"/>
  <rect x="36" y="116" width="408" height="44" rx="12" fill="#FAF7F4" stroke="#E2E4E8"/>
  <rect x="48" y="128" width="48" height="20" rx="10" fill="#E0706C" fill-opacity="0.18"/>
  <rect x="104" y="124" width="180" height="8" rx="3" fill="#1A232E" fill-opacity="0.35"/>
  <rect x="104" y="138" width="260" height="6" rx="2" fill="#1A232E" fill-opacity="0.2"/>
  <rect x="36" y="172" width="408" height="40" rx="10" fill="#FFFFFF" stroke="#E0706C" stroke-width="1.25"/>
  <rect x="48" y="184" width="12" height="12" rx="3" fill="#E0706C" fill-opacity="0.35"/>
  <rect x="68" y="186" width="140" height="8" rx="3" fill="#1A232E" fill-opacity="0.75"/>
  <rect x="36" y="224" width="408" height="36" rx="10" fill="#FFFFFF" stroke="#E2E4E8"/>
  <rect x="68" y="236" width="120" height="8" rx="3" fill="#1A232E" fill-opacity="0.55"/>
  <rect x="36" y="272" width="408" height="36" rx="10" fill="#FFFFFF" stroke="#E2E4E8"/>
  <rect x="68" y="284" width="100" height="8" rx="3" fill="#1A232E" fill-opacity="0.55"/>
  <rect x="36" y="320" width="408" height="72" rx="12" fill="#EEF2F6"/>
  <rect x="48" y="332" width="80" height="6" rx="2" fill="#1A232E" fill-opacity="0.35"/>
  <rect x="48" y="346" width="360" height="5" rx="2" fill="#1A232E" fill-opacity="0.2"/>
  <rect x="48" y="356" width="340" height="5" rx="2" fill="#1A232E" fill-opacity="0.2"/>
  <rect x="48" y="366" width="300" height="5" rx="2" fill="#1A232E" fill-opacity="0.2"/>
  <rect x="472" y="20" width="228" height="190" rx="20" fill="#FFFFFF" stroke="#E2E4E8" stroke-width="1.25"/>
  <rect x="488" y="36" width="88" height="8" rx="3" fill="#E2E4E8"/>
  <rect x="488" y="52" width="160" height="6" rx="2" fill="#EEF2F6"/>
  <rect x="488" y="64" width="140" height="6" rx="2" fill="#EEF2F6"/>
  <rect x="488" y="88" width="196" height="10" rx="3" fill="#EEF2F6"/>
  <rect x="488" y="106" width="180" height="10" rx="3" fill="#EEF2F6"/>
  <rect x="488" y="124" width="196" height="10" rx="3" fill="#EEF2F6"/>
  <rect x="488" y="148" width="196" height="44" rx="12" fill="#EEF2F6"/>
  <rect x="500" y="160" width="72" height="8" rx="3" fill="#1A232E" fill-opacity="0.45"/>
  <rect x="500" y="174" width="160" height="5" rx="2" fill="#1A232E" fill-opacity="0.22"/>
  <rect x="472" y="222" width="228" height="198" rx="20" fill="#FFFFFF" stroke="#E2E4E8" stroke-width="1.25"/>
  <rect x="488" y="238" width="100" height="8" rx="3" fill="#E2E4E8"/>
  <rect x="488" y="258" width="80" height="8" rx="3" fill="#E0706C" fill-opacity="0.85"/>
  <rect x="488" y="274" width="60" height="8" rx="3" fill="#EEF2F6"/>
  <rect x="488" y="290" width="70" height="8" rx="3" fill="#EEF2F6"/>
  <rect x="488" y="306" width="55" height="8" rx="3" fill="#EEF2F6"/>
  <rect x="488" y="330" width="196" height="72" rx="12" fill="#FAF7F4" stroke="#E2E4E8"/>
  <rect x="500" y="346" width="140" height="6" rx="2" fill="#1A232E" fill-opacity="0.28"/>
  <rect x="500" y="358" width="120" height="6" rx="2" fill="#1A232E" fill-opacity="0.2"/>
  <rect x="500" y="370" width="100" height="6" rx="2" fill="#1A232E" fill-opacity="0.2"/>
</svg>
