<svg width="64" height="64" viewBox="0 0 64 64" fill="none" xmlns="http://www.w3.org/2000/svg">
<path d="M25.0667 43.4401L41.0667 27.4401C41.811 26.6821 42.228 25.6623 42.228 24.6001C42.228 23.5378 41.811 22.518 41.0667 21.7601C40.3133 21.0175 39.2979 20.6012 38.2401 20.6012C37.1822 20.6012 36.1668 21.0175 35.4134 21.7601L19.4134 37.7601C18.6676 38.5033 18.0758 39.3864 17.672 40.3589C17.2683 41.3313 17.0604 42.3738 17.0604 43.4267C17.0604 44.4797 17.2683 45.5222 17.672 46.4946C18.0758 47.467 18.6676 48.3502 19.4134 49.0934C20.9134 50.5915 22.9467 51.433 25.0667 51.433C27.1867 51.433 29.2201 50.5915 30.7201 49.0934L46.7201 33.0934C47.8368 31.9788 48.7227 30.6549 49.3272 29.1975C49.9317 27.7401 50.2428 26.1779 50.2428 24.6001C50.2428 23.0223 49.9317 21.46 49.3272 20.0026C48.7227 18.5452 47.8368 17.2213 46.7201 16.1067C44.4621 13.8644 41.409 12.606 38.2267 12.606C35.0445 12.606 31.9914 13.8644 29.7334 16.1067L13.7334 32.1067" stroke="#ED6C6C" stroke-width="1.5" stroke-linecap="round" stroke-linejoin="round"/>
</svg>
