<svg width="56" height="56" viewBox="0 0 56 56" fill="none" xmlns="http://www.w3.org/2000/svg">
<path d="M24.5 17.5C24.5 13.634 21.366 10.5 17.5 10.5C13.634 10.5 10.5 13.634 10.5 17.5C10.5 21.366 13.634 24.5 17.5 24.5C21.366 24.5 24.5 21.366 24.5 17.5Z" stroke="#ED6C6C" stroke-width="1.5" stroke-linecap="round" stroke-linejoin="round"/>
<path d="M42 10.5H35C33.067 10.5 31.5 12.067 31.5 14V21C31.5 22.933 33.067 24.5 35 24.5H42C43.933 24.5 45.5 22.933 45.5 21V14C45.5 12.067 43.933 10.5 42 10.5Z" stroke="#ED6C6C" stroke-width="1.5" stroke-linecap="round" stroke-linejoin="round"/>
<path d="M21 31.5H14C12.067 31.5 10.5 33.067 10.5 35V42C10.5 43.933 12.067 45.5 14 45.5H21C22.933 45.5 24.5 43.933 24.5 42V35C24.5 33.067 22.933 31.5 21 31.5Z" stroke="#ED6C6C" stroke-width="1.5" stroke-linecap="round" stroke-linejoin="round"/>
<path d="M45.5 38.5C45.5 34.634 42.366 31.5 38.5 31.5C34.634 31.5 31.5 34.634 31.5 38.5C31.5 42.366 34.634 45.5 38.5 45.5C42.366 45.5 45.5 42.366 45.5 38.5Z" stroke="#ED6C6C" stroke-width="1.5" stroke-linecap="round" stroke-linejoin="round"/>
</svg>
