<svg width="57" height="57" viewBox="0 0 57 57" fill="none" xmlns="http://www.w3.org/2000/svg">
<path d="M34.4137 44.6262C33.7638 45.606 32.8815 46.4097 31.8455 46.9657C30.8095 47.5217 29.652 47.8127 28.4762 47.8127C27.3005 47.8127 26.143 47.5217 25.107 46.9657C24.071 46.4097 23.1887 45.606 22.5387 44.6262C13.0387 30.685 13.775 23.94 13.775 23.94C13.775 20.0472 15.3214 16.314 18.0739 13.5614C20.8265 10.8088 24.5598 9.26245 28.4525 9.26245C32.3452 9.26245 36.0785 10.8088 38.831 13.5614C41.5836 16.314 43.13 20.0472 43.13 23.94C43.13 23.94 44.0087 30.685 34.4137 44.6262Z" stroke="#ED6C6C" stroke-width="2" stroke-linecap="round" stroke-linejoin="round"/>
<path d="M21.0664 26.3862L25.7214 31.0412L35.9339 20.8287" stroke="#ED6C6C" stroke-width="2" stroke-linecap="round" stroke-linejoin="round"/>
</svg>
