<svg width="82" height="82" viewBox="0 0 82 82" fill="none" xmlns="http://www.w3.org/2000/svg">
<path d="M49.5073 64.1991C48.5723 65.6087 47.303 66.7649 45.8126 67.5648C44.3222 68.3646 42.6571 68.7832 40.9656 68.7832C39.2741 68.7832 37.609 68.3646 36.1186 67.5648C34.6282 66.7649 33.3589 65.6087 32.4239 64.1991C18.7573 44.1433 19.8164 34.4399 19.8164 34.4399C19.8164 28.8399 22.041 23.4692 26.0009 19.5094C29.9607 15.5496 35.3314 13.325 40.9314 13.325C46.5315 13.325 51.9022 15.5496 55.862 19.5094C59.8218 23.4692 62.0464 28.8399 62.0464 34.4399C62.0464 34.4399 63.3106 44.1433 49.5073 64.1991Z" stroke="#ED6C6C" stroke-width="1.5" stroke-linecap="round" stroke-linejoin="round"/>
<path d="M30.3057 37.9591L37.0023 44.6558L51.694 29.9641" stroke="#ED6C6C" stroke-width="1.5" stroke-linecap="round" stroke-linejoin="round"/>
</svg>
