<svg width="64" height="64" viewBox="0 0 64 64" fill="none" xmlns="http://www.w3.org/2000/svg">
<g clip-path="url(#clip0_346_407)">
<path d="M55.0667 29.1734L50.3201 24.4267V17.6801C50.3201 16.6192 49.8986 15.6018 49.1485 14.8516C48.3984 14.1015 47.3809 13.6801 46.3201 13.6801H39.5734L34.8267 8.9334C34.4572 8.5593 34.017 8.26227 33.5318 8.05955C33.0466 7.85683 32.5259 7.75244 32.0001 7.75244C31.4742 7.75244 30.9536 7.85683 30.4683 8.05955C29.9831 8.26227 29.543 8.5593 29.1734 8.9334L24.4267 13.6801H17.6801C16.6192 13.6801 15.6018 14.1015 14.8516 14.8516C14.1015 15.6018 13.6801 16.6192 13.6801 17.6801V24.4267L8.9334 29.1734C8.5593 29.543 8.26227 29.9831 8.05955 30.4683C7.85683 30.9536 7.75244 31.4742 7.75244 32.0001C7.75244 32.5259 7.85683 33.0466 8.05955 33.5318C8.26227 34.017 8.5593 34.4572 8.9334 34.8267L13.6801 39.5734V46.3201C13.6801 47.3809 14.1015 48.3984 14.8516 49.1485C15.6018 49.8986 16.6192 50.3201 17.6801 50.3201H24.4267L29.1734 55.0667C29.543 55.4408 29.9831 55.7379 30.4683 55.9406C30.9536 56.1433 31.4742 56.2477 32.0001 56.2477C32.5259 56.2477 33.0466 56.1433 33.5318 55.9406C34.017 55.7379 34.4572 55.4408 34.8267 55.0667L39.5734 50.3201H46.3201C47.3809 50.3201 48.3984 49.8986 49.1485 49.1485C49.8986 48.3984 50.3201 47.3809 50.3201 46.3201V39.5734L55.0667 34.8267C55.4408 34.4572 55.7379 34.017 55.9406 33.5318C56.1433 33.0466 56.2477 32.5259 56.2477 32.0001C56.2477 31.4742 56.1433 30.9536 55.9406 30.4683C55.7379 29.9831 55.4408 29.543 55.0667 29.1734Z" stroke="#ED6C6C" stroke-width="1.5" stroke-linejoin="round"/>
<path d="M38.2133 22.6667L25.7866 41.3334" stroke="#ED6C6C" stroke-width="1.5" stroke-linecap="round" stroke-linejoin="round"/>
<path d="M38.1333 41.3333V41.3368" stroke="#ED6C6C" stroke-width="2" stroke-linecap="round" stroke-linejoin="round"/>
<path d="M25.8667 22.1335V22.1371" stroke="#ED6C6C" stroke-width="2" stroke-linecap="round" stroke-linejoin="round"/>
</g>
<defs>
<clipPath id="clip0_346_407">
<rect width="64" height="64" fill="white"/>
</clipPath>
</defs>
</svg>
