<svg width="81" height="80" viewBox="0 0 81 80" fill="none" xmlns="http://www.w3.org/2000/svg">
<path d="M51.435 35.6L37.935 28C37.1582 27.5873 36.2867 27.3793 35.4047 27.3963C34.5228 27.4133 33.6602 27.6545 32.9002 28.0969C32.1402 28.5392 31.5085 29.1676 31.0662 29.9214C30.6239 30.6751 30.3858 31.5288 30.375 32.4V47.6C30.3729 48.4904 30.6083 49.3657 31.0577 50.1376C31.5071 50.9095 32.1545 51.5508 32.9347 51.997C33.7149 52.4431 34.6004 52.6783 35.5019 52.6788C36.4035 52.6794 37.2893 52.4452 38.07 52L51.57 44.4C52.3404 43.9387 52.9751 43.2863 53.4112 42.5077C53.8472 41.7292 54.0695 40.8515 54.0559 39.9618C54.0422 39.0721 53.7931 38.2015 53.3334 37.4363C52.8736 36.6711 52.2192 36.0381 51.435 35.6Z" stroke="#ED6C6C" stroke-width="3" stroke-linecap="round" stroke-linejoin="round"/>
<path d="M57.375 10H23.625C16.1692 10 10.125 15.9695 10.125 23.3333V56.6667C10.125 64.0305 16.1692 70 23.625 70H57.375C64.8308 70 70.875 64.0305 70.875 56.6667V23.3333C70.875 15.9695 64.8308 10 57.375 10Z" stroke="#ED6C6C" stroke-width="3" stroke-linecap="round" stroke-linejoin="round"/>
</svg>
