<svg width="95" height="94" viewBox="0 0 95 94" fill="none" xmlns="http://www.w3.org/2000/svg">
<path d="M63.3333 14.7658V78.0591C63.3312 78.2995 63.2547 78.5334 63.114 78.7294C62.9733 78.9254 62.7753 79.0739 62.5466 79.155C62.3179 79.2361 62.0696 79.2459 61.8352 79.183C61.6007 79.1201 61.3914 78.9876 61.2354 78.8033L53.5563 69.4425C53.1853 68.985 52.7154 68.6158 52.181 68.3622C51.6466 68.1085 51.0615 67.9768 50.4688 67.9768C49.876 67.9768 49.2909 68.1085 48.7565 68.3622C48.2221 68.6158 47.7522 68.985 47.3813 69.4425L40.6917 77.6283C40.3208 78.0857 39.8508 78.4549 39.3164 78.7086C38.782 78.9623 38.1969 79.094 37.6042 79.094C37.0115 79.094 36.4263 78.9623 35.8919 78.7086C35.3576 78.4549 34.8876 78.0857 34.5167 77.6283L27.7083 69.4425C27.3374 68.985 26.8674 68.6158 26.3331 68.3622C25.7987 68.1085 25.2135 67.9768 24.6208 67.9768C24.0281 67.9768 23.443 68.1085 22.9086 68.3622C22.3742 68.6158 21.9042 68.985 21.5333 69.4425L13.9729 78.8033C13.817 78.9876 13.6076 79.1201 13.3732 79.183C13.1387 79.2459 12.8904 79.2361 12.6617 79.155C12.433 79.0739 12.235 78.9254 12.0943 78.7294C11.9537 78.5334 11.8771 78.2995 11.875 78.0591V26.5158C11.875 23.3995 13.1261 20.4109 15.3531 18.2073C17.5801 16.0038 20.6006 14.7658 23.75 14.7658H63.3333Z" stroke="#ED6C6C" stroke-width="3" stroke-linecap="round" stroke-linejoin="round"/>
<path d="M63.3335 14.7658H75.2085C77.3081 14.7658 79.3218 15.5911 80.8064 17.0601C82.2911 18.5292 83.1252 20.5216 83.1252 22.5991V31.3333C83.1252 33.4108 82.2911 35.4033 80.8064 36.8723C79.3218 38.3413 77.3081 39.1666 75.2085 39.1666H63.3335V14.7658Z" stroke="#ED6C6C" stroke-width="3" stroke-linecap="round" stroke-linejoin="round"/>
<path d="M27.7085 31.3333H47.5002" stroke="#ED6C6C" stroke-width="3" stroke-linecap="round" stroke-linejoin="round"/>
<path d="M27.7085 43.0833H47.5002" stroke="#ED6C6C" stroke-width="3" stroke-linecap="round" stroke-linejoin="round"/>
<path d="M27.7085 54.8333H47.5002" stroke="#ED6C6C" stroke-width="3" stroke-linecap="round" stroke-linejoin="round"/>
</svg>
