<svg width="74" height="74" viewBox="0 0 74 74" fill="none" xmlns="http://www.w3.org/2000/svg">
<path d="M38.6343 25.6842L40.2068 28.7675C40.3339 29.0401 40.5276 29.2762 40.7702 29.4541C41.0127 29.6319 41.2962 29.7458 41.5943 29.785L45.0477 30.2783C45.3743 30.3382 45.6789 30.485 45.9293 30.7032C46.1797 30.9213 46.3667 31.2029 46.4708 31.5183C46.5749 31.8337 46.5921 32.1712 46.5208 32.4956C46.4494 32.82 46.292 33.1191 46.0652 33.3617L43.5677 35.7975C43.3526 36.0057 43.1922 36.2638 43.1008 36.5489C43.0093 36.834 42.9897 37.1372 43.0435 37.4317L43.6293 40.885C43.6941 41.2231 43.6616 41.5726 43.5356 41.8929C43.4096 42.2132 43.1953 42.4913 42.9177 42.6947C42.64 42.8981 42.3103 43.0185 41.9669 43.0421C41.6235 43.0656 41.2805 42.9912 40.9777 42.8275L37.8943 41.1933C37.6274 41.0555 37.3314 40.9835 37.031 40.9835C36.7306 40.9835 36.4345 41.0555 36.1677 41.1933L33.0843 42.8275C32.7815 42.9912 32.4385 43.0656 32.0951 43.0421C31.7517 43.0185 31.422 42.8981 31.1443 42.6947C30.8666 42.4913 30.6524 42.2132 30.5264 41.8929C30.4004 41.5726 30.3679 41.2231 30.4327 40.885L30.8335 37.555C30.8873 37.2605 30.8677 36.9573 30.7762 36.6722C30.6848 36.3872 30.5244 36.1291 30.3093 35.9208L27.8118 33.485C27.585 33.2424 27.4276 32.9433 27.3562 32.6189C27.2848 32.2946 27.3021 31.957 27.4062 31.6416C27.5103 31.3262 27.6973 31.0447 27.9477 30.8265C28.1981 30.6083 28.5027 30.4616 28.8293 30.4017L32.2827 29.9083C32.6305 29.9069 32.9703 29.804 33.2606 29.6123C33.5508 29.4207 33.7789 29.1485 33.9168 28.8292L35.4893 25.7458C35.6439 25.4675 35.8689 25.2345 36.1417 25.0703C36.4146 24.9061 36.7257 24.8164 37.0441 24.8102C37.3625 24.8039 37.6769 24.8814 37.956 25.0347C38.235 25.1881 38.4689 25.4121 38.6343 25.6842Z" stroke="#ED6C6C" stroke-width="1.5" stroke-miterlimit="10"/>
<path d="M40.0835 63.2699L37.0002 65.0274L33.9168 63.2699C27.3521 59.4798 21.9012 54.0277 18.1124 47.4623C14.3236 40.8968 12.3304 33.4493 12.3335 25.8691C12.3346 24.7877 12.6201 23.7256 13.1613 22.7893C13.7024 21.8531 14.4803 21.0756 15.4168 20.5349L34.1635 9.7124C35.0249 9.21142 36.0037 8.94751 37.0002 8.94751C37.9967 8.94751 38.9754 9.21142 39.8368 9.7124L58.5835 20.5349C59.52 21.0756 60.2979 21.8531 60.8391 22.7893C61.3803 23.7256 61.6657 24.7877 61.6668 25.8691C61.6699 33.4493 59.6768 40.8968 55.8879 47.4623C52.0991 54.0277 46.6482 59.4798 40.0835 63.2699Z" stroke="#ED6C6C" stroke-width="1.5" stroke-linecap="round" stroke-linejoin="round"/>
</svg>
