<svg width="100" height="100" viewBox="0 0 100 100" fill="none" xmlns="http://www.w3.org/2000/svg">
<path d="M52.2083 34.7083L54.3333 38.875C54.505 39.2433 54.7668 39.5624 55.0946 39.8028C55.4223 40.0431 55.8053 40.1969 56.2083 40.25L60.875 40.9166C61.3164 40.9976 61.7279 41.1959 62.0663 41.4907C62.4047 41.7855 62.6575 42.166 62.7981 42.5922C62.9388 43.0184 62.9621 43.4746 62.8656 43.9129C62.7692 44.3512 62.5565 44.7555 62.25 45.0833L58.875 48.375C58.5843 48.6564 58.3676 49.0051 58.244 49.3904C58.1204 49.7756 58.0939 50.1854 58.1666 50.5833L58.9583 55.25C59.0458 55.7068 59.0018 56.1791 58.8316 56.612C58.6614 57.0449 58.3718 57.4206 57.9966 57.6954C57.6214 57.9703 57.1758 58.1331 56.7118 58.1649C56.2477 58.1967 55.7842 58.0961 55.375 57.875L51.2083 55.6666C50.8476 55.4803 50.4476 55.3831 50.0416 55.3831C49.6357 55.3831 49.2356 55.4803 48.875 55.6666L44.7083 57.875C44.2991 58.0961 43.8355 58.1967 43.3715 58.1649C42.9074 58.1331 42.4619 57.9703 42.0867 57.6954C41.7114 57.4206 41.4219 57.0449 41.2516 56.612C41.0814 56.1791 41.0375 55.7068 41.125 55.25L41.6666 50.75C41.7394 50.352 41.7128 49.9423 41.5892 49.557C41.4657 49.1718 41.2489 48.823 40.9583 48.5416L37.5833 45.25C37.2767 44.9222 37.0641 44.5179 36.9676 44.0796C36.8711 43.6413 36.8945 43.1851 37.0351 42.7589C37.1758 42.3327 37.4285 41.9522 37.7669 41.6574C38.1053 41.3625 38.5168 41.1643 38.9583 41.0833L43.625 40.4166C44.095 40.4147 44.5542 40.2756 44.9465 40.0166C45.3387 39.7576 45.6469 39.3898 45.8333 38.9583L47.9583 34.7916C48.1672 34.4154 48.4712 34.1006 48.8399 33.8788C49.2086 33.6569 49.6291 33.5356 50.0593 33.5272C50.4895 33.5188 50.9145 33.6234 51.2916 33.8307C51.6687 34.038 51.9848 34.3406 52.2083 34.7083Z" stroke="#ED6C6C" stroke-width="3" stroke-miterlimit="10"/>
<path d="M54.1665 85.5L49.9998 87.875L45.8332 85.5C36.9619 80.3782 29.5958 73.0106 24.4758 64.1383C19.3558 55.2661 16.6624 45.202 16.6665 34.9583C16.668 33.497 17.0538 32.0617 17.7851 30.7965C18.5164 29.5313 19.5676 28.4807 20.8332 27.75L46.1665 13.125C47.3306 12.448 48.6532 12.0914 49.9998 12.0914C51.3465 12.0914 52.6691 12.448 53.8332 13.125L79.1665 27.75C80.4321 28.4807 81.4833 29.5313 82.2146 30.7965C82.9459 32.0617 83.3317 33.497 83.3332 34.9583C83.3373 45.202 80.6439 55.2661 75.5239 64.1383C70.4038 73.0106 63.0377 80.3782 54.1665 85.5Z" stroke="#ED6C6C" stroke-width="3" stroke-linecap="round" stroke-linejoin="round"/>
</svg>
