<svg width="56" height="56" viewBox="0 0 56 56" fill="none" xmlns="http://www.w3.org/2000/svg">
<path d="M48.1832 25.5267L44.0299 21.3733V15.47C44.0299 14.5417 43.6611 13.6515 43.0048 12.9951C42.3484 12.3387 41.4581 11.97 40.5299 11.97H34.6265L30.4732 7.81667C30.1498 7.48932 29.7647 7.22943 29.3401 7.05205C28.9156 6.87466 28.46 6.78333 27.9999 6.78333C27.5397 6.78333 27.0842 6.87466 26.6596 7.05205C26.2351 7.22943 25.8499 7.48932 25.5265 7.81667L21.3732 11.97H15.4699C14.5416 11.97 13.6514 12.3387 12.995 12.9951C12.3386 13.6515 11.9699 14.5417 11.9699 15.47V21.3733L7.81655 25.5267C7.4892 25.85 7.22931 26.2352 7.05192 26.6597C6.87454 27.0843 6.7832 27.5399 6.7832 28C6.7832 28.4601 6.87454 28.9157 7.05192 29.3403C7.22931 29.7648 7.4892 30.15 7.81655 30.4733L11.9699 34.6267V40.53C11.9699 41.4583 12.3386 42.3485 12.995 43.0049C13.6514 43.6613 14.5416 44.03 15.4699 44.03H21.3732L25.5265 48.1833C25.8499 48.5107 26.2351 48.7706 26.6596 48.948C27.0842 49.1253 27.5397 49.2167 27.9999 49.2167C28.46 49.2167 28.9156 49.1253 29.3401 48.948C29.7647 48.7706 30.1498 48.5107 30.4732 48.1833L34.6265 44.03H40.5299C41.4581 44.03 42.3484 43.6613 43.0048 43.0049C43.6611 42.3485 44.0299 41.4583 44.0299 40.53V34.6267L48.1832 30.4733C48.5106 30.15 48.7705 29.7648 48.9478 29.3403C49.1252 28.9157 49.2166 28.4601 49.2166 28C49.2166 27.5399 49.1252 27.0843 48.9478 26.6597C48.7705 26.2352 48.5106 25.85 48.1832 25.5267Z" stroke="#ED6C6C" stroke-width="1.5" stroke-linejoin="round"/>
<path d="M19.6235 28.5134L24.8735 33.7634L36.3769 22.2367" stroke="#ED6C6C" stroke-width="1.5" stroke-linecap="round" stroke-linejoin="round"/>
</svg>
