<svg width="57" height="57" viewBox="0 0 57 57" fill="none" xmlns="http://www.w3.org/2000/svg">
<path d="M25.5312 23.2987C29.4663 23.2987 32.6562 20.1087 32.6562 16.1737C32.6562 12.2387 29.4663 9.04871 25.5312 9.04871C21.5962 9.04871 18.4062 12.2387 18.4062 16.1737C18.4062 20.1087 21.5962 23.2987 25.5312 23.2987Z" stroke="#ED6C6C" stroke-width="1.5" stroke-linecap="round" stroke-linejoin="round"/>
<path d="M7.71875 47.9513C7.71875 43.2271 9.59542 38.6964 12.9359 35.356C16.2764 32.0155 20.8071 30.1388 25.5312 30.1388C30.2554 30.1388 34.7861 32.0155 38.1266 35.356C41.4671 38.6964 43.3437 43.2271 43.3438 47.9513" stroke="#ED6C6C" stroke-width="1.5" stroke-linecap="round" stroke-linejoin="round"/>
<path d="M42.085 29.6875C44.2769 31.0882 46.0794 33.02 47.3251 35.3037C48.5707 37.5873 49.2191 40.1487 49.21 42.75" stroke="#ED6C6C" stroke-width="1.5" stroke-linecap="round" stroke-linejoin="round"/>
<path d="M37.1689 10.2362C38.7437 10.2362 40.2539 10.8618 41.3674 11.9753C42.4809 13.0888 43.1064 14.599 43.1064 16.1737C43.1064 17.7484 42.4809 19.2587 41.3674 20.3722C40.2539 21.4857 38.7437 22.1112 37.1689 22.1112" stroke="#ED6C6C" stroke-width="1.5" stroke-linecap="round" stroke-linejoin="round"/>
</svg>
